<?xml version="1.0" encoding="UTF-8" standalone="no"?>
<!-- Created with Inkscape (http://www.inkscape.org/) -->

<svg
   width="108.3894mm"
   height="89.098389mm"
   viewBox="0 0 108.3894 89.098388"
   version="1.1"
   id="svg1"
   inkscape:version="1.3.2 (091e20e, 2023-11-25, custom)"
   sodipodi:docname="backspace.svg"
   xmlns:inkscape="http://www.inkscape.org/namespaces/inkscape"
   xmlns:sodipodi="http://sodipodi.sourceforge.net/DTD/sodipodi-0.dtd"
   xmlns="http://www.w3.org/2000/svg"
   xmlns:svg="http://www.w3.org/2000/svg">
  <sodipodi:namedview
     id="namedview1"
     pagecolor="#505050"
     bordercolor="#ffffff"
     borderopacity="1"
     inkscape:showpageshadow="0"
     inkscape:pageopacity="0"
     inkscape:pagecheckerboard="1"
     inkscape:deskcolor="#505050"
     inkscape:document-units="mm"
     inkscape:zoom="0.55048947"
     inkscape:cx="92.644824"
     inkscape:cy="24.52363"
     inkscape:window-width="1920"
     inkscape:window-height="991"
     inkscape:window-x="-9"
     inkscape:window-y="-9"
     inkscape:window-maximized="1"
     inkscape:current-layer="layer1" />
  <defs
     id="defs1">
    <clipPath
       clipPathUnits="userSpaceOnUse"
       id="clipPath34">
      <path
         id="path35"
         style="fill:#ff0000;fill-opacity:1;fill-rule:nonzero;stroke:none;stroke-width:0.264583"
         d="m 70.938821,88.93824 v 1.049549 c 0.214167,-0.212172 0.570786,-0.363802 1.082622,-0.363802 h 0.22996 c 0.314087,-0.09768 0.656895,-0.158747 1.007174,-0.195855 0.0043,-0.03616 0.0073,-0.07237 0.01188,-0.108519 0.01696,-0.12745 0.03773,-0.254375 0.05736,-0.381373 z m 8.681641,0 c -0.01172,0.07062 -0.02273,0.141436 -0.03514,0.211873 -0.03143,0.160129 -0.06382,0.320035 -0.0956,0.480076 0.403918,-0.0039 0.80219,0.0114 1.129646,0.310573 0.102772,0.09389 0.162047,0.226711 0.24288,0.340032 0.245978,0.714857 0.144142,1.490197 0.200506,2.234489 0.08396,0.843248 0.170183,1.686099 0.234609,2.531112 0.05299,0.72915 0.06691,1.460344 0.07855,2.191081 0.01159,1.050557 0.0136,2.101149 0.01551,3.151744 0.0016,0.9535 0.0021,1.90679 0.0026,2.86029 -0.01027,1.37142 -0.0019,2.74272 0.08992,4.11138 0.04396,0.48041 0.07409,0.96173 0.115239,1.44229 0.147238,0.005 0.259546,0.0182 0.263033,0.0522 0.02371,0.23107 -0.0011,0.46168 -0.03721,0.69195 0.924039,0.79766 0.781627,1.32233 -0.01757,1.87224 0.07408,1.26874 0.0864,2.54008 0.100253,3.81062 0.01299,1.43111 0.01675,2.86259 0.01963,4.29379 0.0024,1.31014 0.0027,2.61985 0.0031,3.92999 2.65e-4,1.03364 5.29e-4,2.06747 5.29e-4,3.10111 5e-5,0.69268 -8e-6,1.38523 0,2.07791 -0.04326,0.7547 -0.16591,1.50191 -0.24081,2.2536 -0.06158,0.72155 -0.07637,1.44619 -0.09302,2.1699 -0.015,0.88943 -0.01714,1.77904 -0.02016,2.66857 0.02201,0.32569 0.05421,0.65065 0.07906,0.97617 0.03255,0.0186 0.04637,0.0618 0.05375,0.1111 0.0074,5.3e-4 0.01212,0.002 0.01963,0.002 0.02035,10e-4 -0.0044,0.0406 -0.0052,0.061 -0.0041,0.10695 -0.0062,0.21395 -0.0093,0.32091 -0.0016,0.0575 -0.0036,0.1151 -0.0052,0.17261 0.02943,0.35937 0.07035,0.71769 0.101804,1.07692 3.316044,0.0216 6.632329,0.0358 9.948227,0.0434 0.828432,0.002 0.826453,0.83916 -0.0021,0.83716 -3.288946,-0.008 -6.57805,-0.0215 -9.867099,-0.0429 0.08107,0.87944 0.154353,1.75969 0.249082,2.63756 0.251727,2.05642 0.464587,4.11884 0.755509,6.17017 0.242475,1.41197 0.393566,2.83465 0.488861,4.2633 0.107997,1.2193 0.09429,2.43518 0.0052,3.65405 -0.127262,1.0038 -0.340728,1.99556 -0.548802,2.98533 -0.214815,0.86909 -0.460843,1.72896 -0.651123,2.60399 -0.119859,0.60411 -0.206288,1.21436 -0.274918,1.82623 -0.01389,0.12369 -0.01003,0.25032 -0.03824,0.37156 -0.03398,0.14605 -0.09787,0.28353 -0.146759,0.4253 -0.173601,0.014 -0.350507,0.0554 -0.526584,0.0915 -0.02606,0.20991 -0.04453,0.42045 -0.0708,0.63046 -0.09991,0.80745 -0.16696,1.61816 -0.212392,2.43034 -0.03349,0.64017 -0.09039,1.28087 -0.176733,1.91616 -0.08653,0.53343 -0.142293,1.0704 -0.180351,1.60921 -0.02156,0.48201 -0.06307,0.96606 -0.03617,1.44848 0.01519,0.40763 0.189556,0.78432 0.310576,1.16893 0.197816,0.51263 0.383995,1.02468 0.492993,1.56425 0.02238,0.18605 0.01537,0.34665 -0.0036,0.49661 H 190.13465 V 88.93824 Z m -7.169071,2.473235 c -1.16e-4,5.29e-4 -5.29e-4,0.0011 -5.29e-4,0.0016 0.07321,0.03464 0.143732,0.073 0.216006,0.109037 0.216194,-0.03642 0.432617,-0.07071 0.649057,-0.10542 -7.94e-4,-0.0016 -0.0013,-0.0035 -0.0021,-0.0052 z m 1.5875,3.458186 c -0.05821,0.0064 -0.116456,0.01175 -0.174667,0.0181 0.0021,0.05485 0.0077,0.108897 0.0098,0.163814 -0.0024,0.07327 -0.01331,0.145912 -0.01654,0.219109 0.05947,-0.134104 0.120684,-0.267448 0.181385,-0.40101 z m -1.947166,22.823409 v 5.3e-4 c 1.8e-5,0.0791 -2.4e-5,0.15814 0,0.2372 0.0097,-0.0779 0.0199,-0.15573 0.02997,-0.23358 -0.01003,-0.001 -0.01995,-0.003 -0.02997,-0.004 z m -1.152904,18.14515 v 0.58498 c 0.01336,0.003 0.02654,0.007 0.03979,0.0103 -0.01302,-0.19847 -0.02919,-0.39666 -0.03979,-0.59531 z m 0,21.04161 v 0.10129 c 0.0043,-0.032 0.0085,-0.0641 0.01291,-0.0961 -0.0043,-0.002 -0.0086,-0.003 -0.01291,-0.005 z m 3.599781,10.24175 c -0.0089,0.0463 -0.0249,0.082 -0.03152,0.13694 0.03941,-0.005 0.04414,-0.0598 0.03152,-0.13694 z m -1.235067,2.33423 c -0.01172,0.008 -0.02432,0.0142 -0.03617,0.0222 -0.01138,0.053 -0.02209,0.10616 -0.03359,0.15916 0.04974,-0.0355 0.10015,-0.07 0.150897,-0.10439 -0.02352,-0.0127 -0.05074,-0.0191 -0.06615,-0.0455 -0.0058,-0.01 -0.0093,-0.0214 -0.01498,-0.0315 z m 4.572333,5.48907 c -5.29e-4,0.002 -5.29e-4,10e-4 -0.0011,0.003 -0.01066,0.0487 0.04076,0.19222 0.04547,0.14262 0.0048,-0.0505 -0.01654,-0.0984 -0.04444,-0.14572 z m 1.6862,0.43305 c -0.0038,0.0151 -0.007,0.0129 -0.01035,0.0294 -0.0057,0.028 -0.0105,0.0747 0.01654,0.0837 0.02439,0.008 0.0027,-0.0513 0.0041,-0.077 -0.0021,-0.0125 -0.0081,-0.0238 -0.01035,-0.0362 z" />
    </clipPath>
  </defs>
  <g
     inkscape:label="Layer 1"
     inkscape:groupmode="layer"
     id="layer1"
     transform="translate(-80.792541,-87.708294)">
    <g
       id="g37"
       transform="matrix(0.61703771,0,0,1.0283926,71.861687,-3.7551337)">
      <rect
         style="fill:none;fill-opacity:1;stroke:#000000;stroke-width:10.309;stroke-linecap:round;stroke-linejoin:round"
         id="rect1"
         width="108.88684"
         height="76.329674"
         x="76.093506"
         y="94.09256"
         clip-path="url(#clipPath34)" />
      <path
         style="fill:none;fill-opacity:1;stroke:#000000;stroke-width:10.2585;stroke-linecap:round;stroke-linejoin:round"
         d="m 80.279053,94.66236 c -58.53854,39.9973 -58.53854,39.9973 -58.53854,39.9973"
         id="path3" />
      <path
         style="fill:none;fill-opacity:1;stroke:#000000;stroke-width:11.5398;stroke-linecap:round;stroke-linejoin:round"
         d="m 20.243657,137.1485 c 59.777799,32.59075 59.777799,32.59075 59.777799,32.59075"
         id="path4" />
      <rect
         style="fill:#000000;fill-opacity:1;stroke:#000000;stroke-width:3.66145;stroke-linecap:round;stroke-linejoin:round"
         id="rect35"
         width="4.9379611"
         height="94.044205"
         x="-48.919186"
         y="134.20453"
         transform="matrix(0.60480903,-0.79637054,0.85438507,0.51964041,0,0)" />
      <rect
         style="fill:#000000;fill-opacity:1;stroke:#000000;stroke-width:3.66145;stroke-linecap:round;stroke-linejoin:round"
         id="rect35-2"
         width="4.9379611"
         height="94.044205"
         x="178.76624"
         y="-102.00896"
         transform="matrix(0.45476755,0.89061017,-0.83907959,0.54400868,0,0)" />
    </g>
  </g>
</svg>
