<?xml version="1.0" encoding="UTF-8" standalone="no"?>
<!-- Created with Inkscape (http://www.inkscape.org/) -->

<svg
   width="201.83453mm"
   height="191.91458mm"
   viewBox="0 0 201.83453 191.91457"
   version="1.1"
   id="svg1"
   inkscape:version="1.3.2 (091e20e, 2023-11-25, custom)"
   sodipodi:docname="keyboardToggle.svg"
   xmlns:inkscape="http://www.inkscape.org/namespaces/inkscape"
   xmlns:sodipodi="http://sodipodi.sourceforge.net/DTD/sodipodi-0.dtd"
   xmlns="http://www.w3.org/2000/svg"
   xmlns:svg="http://www.w3.org/2000/svg">
  <sodipodi:namedview
     id="namedview1"
     pagecolor="#505050"
     bordercolor="#ffffff"
     borderopacity="1"
     inkscape:showpageshadow="0"
     inkscape:pageopacity="0"
     inkscape:pagecheckerboard="1"
     inkscape:deskcolor="#505050"
     inkscape:document-units="mm"
     inkscape:zoom="0.78374771"
     inkscape:cx="413.39834"
     inkscape:cy="350.24026"
     inkscape:window-width="1920"
     inkscape:window-height="991"
     inkscape:window-x="-9"
     inkscape:window-y="-9"
     inkscape:window-maximized="1"
     inkscape:current-layer="g159" />
  <defs
     id="defs1">
    <clipPath
       clipPathUnits="userSpaceOnUse"
       id="clipPath153">
      <path
         id="path154"
         style="fill:#ff0000;fill-opacity:1;fill-rule:nonzero;stroke:none;stroke-width:0.264583"
         d="m 91.050256,59.324028 v 51.373612 c 0.948335,0.0153 1.896742,0.0556 2.844789,0.0801 1.294643,0.0247 2.587847,0.0383 3.879866,0.12868 1.168955,0.13325 2.329679,0.34034 3.484029,0.56689 0.81424,0.11476 1.60685,0.31621 2.3952,0.54622 1.47548,0.43049 1.0402,1.92138 -0.43512,1.49035 -0.74378,-0.21731 -1.49,-0.40755 -2.25929,-0.51315 -0.21971,-0.0431 -0.44076,-0.0802 -0.66094,-0.12144 0.0409,0.0277 0.0822,0.0548 0.12299,0.0827 0.41146,0.2778 0.20884,0.13718 0.6072,0.42272 1.24896,0.89542 0.34165,2.15869 -0.90589,1.2609 -0.223665,-0.16091 -0.271131,-0.19498 -0.342616,-0.24339 -0.08033,0.12205 -0.07206,0.10621 -0.25735,0.43718 0.372044,0.46521 0.362516,0.6713 0.495576,1.22318 0.0464,1.17543 -0.238732,2.32373 -0.488858,3.46232 -0.207894,0.94635 -0.236855,1.11449 -0.312127,1.49397 0.05352,-0.0152 0.1079,-0.0248 0.162264,-0.0248 0.387067,-1e-5 0.769861,0.38443 0.763261,1.1529 -0.008,0.96386 -0.181604,1.92009 -0.340547,2.86804 -0.169534,0.912 -0.331184,1.8256 -0.494543,2.73886 0.288179,0.13158 0.524515,0.49646 0.524515,1.09605 v 3.30626 c -0.0043,0.14692 9.8e-5,0.29422 0,0.44132 0.02487,-2.6e-4 0.04887,-0.002 0.0739,-0.002 0.309405,-2.7e-4 0.625415,0.0241 0.807185,0.005 0.82587,0.003 1.65209,0.006 2.47788,0.0186 0.0708,10e-4 0.14155,0.006 0.21239,0.008 3e-5,-0.0822 -2.1e-4,-0.16431 0,-0.24649 0.002,-0.76851 0.39031,-1.15239 0.77825,-1.15239 0.38794,0 0.77511,0.38388 0.77411,1.15239 -1.2e-4,0.10129 -6e-5,0.20256 0,0.30385 0.24938,0.0106 0.49895,0.016 0.74828,0.0274 -0.0832,-0.42049 -0.18764,-0.83639 -0.32815,-1.24437 -0.29716,-0.86286 0.0836,-1.41459 0.55087,-1.41748 0.3197,-0.002 0.67977,0.25306 0.89039,0.84077 0.22896,0.63901 0.37849,1.29705 0.48886,1.96268 0.46213,0.0545 0.92305,0.12048 1.38131,0.20567 0.39605,0.0639 0.79493,0.10671 1.19476,0.14004 0.12485,-0.17269 0.29202,-0.26929 0.46819,-0.2713 0.1908,-0.002 0.39083,0.10684 0.55707,0.34365 0.0549,0.004 0.10993,0.008 0.16485,0.0119 1.04552,0.0341 2.09093,0.0897 3.13727,0.0754 1.03347,-0.01 2.06748,-0.0218 3.10007,-0.0687 0.97455,-0.0459 1.95696,-0.0746 2.91869,-0.24908 0.23918,-0.0707 0.47801,-0.14714 0.71933,-0.20877 v -0.10077 c 0,-0.76851 0.38803,-1.15239 0.77618,-1.15239 0.38816,0 0.7767,0.38388 0.7767,1.15239 v 0.22841 c 0.0786,0.0391 0.16162,0.0721 0.23306,0.12144 0.011,-0.32381 0.0129,-0.6479 0.0289,-0.97152 0.0454,-0.83344 0.0872,-1.67013 0.2036,-2.497 0.10708,-0.76101 0.54154,-1.14209 0.92605,-1.14257 0.3845,-5.3e-4 0.71933,0.37965 0.62683,1.14257 -0.10396,0.85747 -0.15929,1.7191 -0.20619,2.58123 -0.0464,0.93877 -0.0678,1.87874 -0.0837,2.81844 -0.0185,0.90653 0.004,1.81319 -0.0455,2.71869 -0.0666,1.00714 -0.19916,2.00733 -0.36742,3.00189 -0.0826,0.46014 -0.14618,0.9229 -0.19792,1.38699 H 186.4558 V 59.324028 Z m 0,52.926482 v 2.39004 c 0.0044,-0.0361 0.0072,-0.0724 0.01188,-0.10852 0.07372,-0.54586 0.133305,-1.11737 0.295588,-1.64745 -0.09546,-0.23209 -0.05077,-0.45799 0.09767,-0.6227 -0.135054,-0.004 -0.270076,-0.008 -0.405143,-0.0114 z m 5.351613,3.68867 c -0.02643,0.0816 -0.05555,0.16309 -0.08062,0.24494 0.01265,0.005 0.02334,0.0121 0.03514,0.0181 0.01482,-0.0878 0.02948,-0.17549 0.04548,-0.26303 z m 20.575491,18.90685 c -0.0715,0.003 -0.14299,0.003 -0.21446,0.005 0.0555,0.025 0.10477,0.0556 0.14883,0.0909 0.0212,-0.0324 0.0433,-0.0644 0.0656,-0.0961 z m -20.817855,1.01699 c -0.0045,0.016 -0.0089,0.032 -0.01344,0.0481 0.01159,0.0126 0.02384,0.0236 0.03514,0.0367 -0.0072,-0.0282 -0.01447,-0.0565 -0.0217,-0.0847 z m 22.066355,0.44856 c -0.0365,0.0396 -0.0699,0.082 -0.1049,0.12299 0.0176,0.0123 0.0353,0.0246 0.0522,0.0377 0.017,-0.0538 0.035,-0.10718 0.0527,-0.16071 z m -23.161378,0.42529 c -0.03712,0.0355 -0.04467,0.0926 -0.0677,0.1385 0.0034,0.006 0.0013,0.006 0.0031,0.0103 0.0063,0.002 0.01286,0.003 0.01913,0.005 0.0019,-0.002 0.0061,-0.006 0.0078,-0.008 0.02896,-0.041 0.07402,-0.18043 0.03772,-0.14573 z m -0.04548,0.154 c -0.0031,0.004 -0.0095,0.0111 -0.01291,0.0155 0.0011,-0.004 -0.0024,-0.012 -0.0062,-0.0207 -0.01934,-0.007 -0.03762,-0.0161 -0.05685,-0.0233 0.0051,0.0405 0.006,0.0599 0.01085,0.10232 0.0118,-0.0135 0.02611,-0.0283 0.03617,-0.0408 -0.01392,-0.0102 -0.02545,-0.0159 -0.03979,-0.0269 -0.0093,-0.007 0.03545,0.0198 0.05116,0.0139 -0.003,0.004 -0.0082,0.009 -0.01138,0.0129 0.252685,0.18578 0.444434,0.26141 0.663008,0.10542 -0.214746,-0.0206 -0.427439,-0.0673 -0.634071,-0.13849 z m 5.785698,-0.005 c 2.6e-4,0.006 7.9e-4,0.0121 0.001,0.0181 0.0384,-10e-4 0.0768,-0.002 0.11524,-0.003 -0.0387,-0.005 -0.0775,-0.0102 -0.11627,-0.0155 z m 0.23926,1.68155 c 0.0286,0.0828 0.054,0.16664 0.0822,0.2496 0.0113,-0.0817 0.0237,-0.16319 0.0346,-0.24495 -0.0389,-0.002 -0.0778,-0.003 -0.11679,-0.005 z m 6.67505,1.45986 c -0.005,0.21326 -0.007,0.42652 -0.0145,0.63976 h 0.0563 c -0.0122,-0.21334 -0.0262,-0.42661 -0.0418,-0.63976 z m 5.15575,0.0739 c -0.0345,0.18864 -0.0686,0.37727 -0.10077,0.56637 h 0.10077 z m -19.105812,0.45062 c -0.06522,-1.9e-4 -0.129111,0.0294 -0.176733,0.12144 0.06618,-0.0253 0.125129,-0.0701 0.180869,-0.12041 -0.0013,-4e-5 -0.0027,-0.001 -0.0041,-0.001 z m 26.060952,0.38137 c -0.0786,0.0184 -0.15848,0.0341 -0.23875,0.0486 0.11232,0.0144 0.2238,0.0346 0.33641,0.047 -0.0335,-0.0311 -0.0651,-0.0637 -0.0977,-0.0956 z m -28.779648,0.1757 v 1.00666 h 1.233 c -0.326427,-0.0993 -0.6316,-0.2465 -0.888317,-0.50592 -0.145542,-0.16989 -0.257519,-0.3337 -0.344683,-0.50074 z m 3.9703,0.68316 c -0.211352,0.12112 -0.421762,0.24422 -0.638204,0.32401 h 1.072287 c -0.19957,-0.0772 -0.344556,-0.1916 -0.434083,-0.32401 z" />
    </clipPath>
    <clipPath
       clipPathUnits="userSpaceOnUse"
       id="clipPath249">
      <path
         id="path250"
         style="fill:#ff0000;fill-opacity:1;fill-rule:nonzero;stroke:none;stroke-width:0.264585"
         d="m 73.653215,-194.52454 -111.750425,-40.20009 -37.561013,105.54361 26.035438,9.36588 c -0.0041,-0.005 -0.0085,-0.009 -0.01264,-0.0139 -0.07906,-0.10074 -0.164205,-0.19653 -0.236971,-0.30187 -0.289867,-0.41982 -0.432989,-0.92135 -0.619996,-1.38953 -0.202636,-0.60477 -0.355359,-1.22377 -0.48249,-1.84842 -0.19012,-0.79644 -0.383619,-1.59286 -0.52117,-2.40034 -0.16502,-1.07953 -0.235444,-2.16448 -0.255241,-3.25563 -0.03452,-0.90132 -0.08143,-1.80872 0.03407,-2.70571 0.124984,-0.91219 0.392609,-1.78764 0.581627,-2.68695 0.03337,-0.23155 0.06634,-0.38935 0.06595,-0.61901 -7.65e-4,-0.44497 -0.145377,-0.87531 -0.220423,-1.30994 -0.188191,-1.0707 -0.260568,-2.1625 -0.212401,-3.24791 0.08952,-1.37436 0.238121,-2.74358 0.302643,-4.11941 0.0026,-0.0818 -0.0039,-0.16345 -0.0017,-0.24521 -0.03577,-0.0831 -0.03463,-0.16994 -0.0018,-0.24963 0.02613,-1.21328 0.02381,-2.42482 -0.02654,-3.63897 -0.04685,-1.1484 -0.154728,-2.37364 0.292239,-3.45738 0.01978,-0.0476 0.04161,-0.0884 0.06273,-0.13154 -0.280932,-0.11937 -0.565469,-0.2306 -0.844515,-0.35425 -1.239742,-0.54937 -1.189413,-1.7354 -0.226278,-1.68552 0.06197,-0.0717 0.138494,-0.13815 0.234639,-0.19474 -0.186691,-0.009 -0.373649,-0.003 -0.560382,-0.0151 -0.734358,-0.0478 -1.472446,-0.0626 -2.203596,0.0228 -0.124779,0.0199 -0.249743,0.0401 -0.374528,0.0599 -1.555807,0.24847 -1.811469,-1.33091 -0.254633,-1.57342 0.148132,-0.0231 0.296157,-0.0463 0.444345,-0.0694 0.826064,-0.0897 1.657973,-0.0873 2.487485,-0.0287 0.933008,0.0624 1.86542,0.0771 2.800294,0.074 1.077722,0.0212 2.155818,0.0465 3.231491,0.12488 1.252628,0.0966 2.504439,0.20414 3.759024,0.27242 1.606975,0.0985 3.217559,0.13773 4.822753,0.26846 1.120044,0.13089 2.251818,0.18724 3.353405,0.45062 0.636453,0.14 1.268583,0.29298 1.885192,0.49994 0.205539,0.069 0.409287,0.14387 0.610986,0.22637 1.461539,0.59792 0.925824,2.10236 -0.533249,1.49839 -0.02802,-0.0115 -0.05725,-0.0178 -0.08526,-0.029 -0.01851,0.0167 -0.0455,0.0265 -0.06636,0.0414 0.05936,0.0205 0.119626,0.0384 0.178631,0.0599 0.295366,0.10737 0.586838,0.22644 0.873165,0.36018 0.426444,0.19235 1.497513,0.67345 1.770494,1.04603 0.143651,0.19604 0.225848,0.43043 0.338751,0.6456 -0.09448,0.26628 -0.141738,0.55441 -0.283599,0.79847 -0.06321,0.10856 -0.198049,0.1564 -0.307982,0.21716 -0.491199,0.27147 -1.067266,0.28349 -1.613197,0.26533 -0.244224,-0.009 -0.487707,-0.0301 -0.73183,-0.0412 0.06184,0.0812 0.121307,0.16445 0.18515,0.24374 -0.0084,0.071 -0.0037,0.14494 -0.02528,0.21302 -0.0061,0.0195 -0.02639,0.0271 -0.03424,0.0453 0.03861,0.0138 0.07717,0.0286 0.116071,0.0412 0.08327,0.0578 0.17491,0.10584 0.250112,0.17388 0.241599,0.21859 0.294391,0.59192 0.308185,0.8951 -0.0029,0.34587 -0.03532,0.68876 -0.08402,1.03096 -0.06149,0.42048 -0.09378,0.84549 -0.183031,1.26133 -0.07102,0.42017 -0.09977,0.84374 -0.07532,1.27045 0.0058,0.39585 0.05605,0.97055 -0.221359,1.29032 -0.02966,0.0342 -0.0745,0.0507 -0.114385,0.0729 0.01594,0.022 0.03364,0.0429 0.0504,0.0636 0.02456,0.0704 0.05896,0.13822 0.07366,0.21131 0.03333,0.1656 -0.0031,0.32212 -0.0774,0.46134 0.02101,0.0606 0.03212,0.12242 0.03461,0.18521 0.214545,0.11178 0.380613,0.2936 0.326132,0.58073 -0.02181,0.11493 -0.125578,0.19725 -0.18824,0.29588 -0.104639,0.0734 -0.219355,0.11014 -0.337875,0.13292 4.6e-5,3e-4 -1.05e-4,0.001 1.45e-4,0.001 0.04068,0.18837 0.113848,0.36906 0.170567,0.55329 0.06102,0.19905 0.109021,0.40153 0.156325,0.6041 0.105345,0.19326 0.17439,0.40809 0.219565,0.63014 0.03737,0.26281 0.03684,0.52418 -0.0072,0.78111 0.0089,0.13835 0.01418,0.27691 0.01308,0.41547 1.8e-4,0.0275 -0.0096,0.0539 -0.01026,0.0813 0.121971,-0.0101 0.247836,-0.0111 0.394331,-0.003 0.303562,4.1e-4 0.605638,0.0221 0.908491,0.0433 0.324633,0.0267 0.65106,0.007 0.974928,0.048 0.386728,0.026 0.774742,0.0207 1.160918,0.0579 0.3273,0.0132 0.651852,0.009 0.979006,-0.01 0.400811,0.0115 0.802072,-0.0164 1.202299,0.0234 0.370918,0.0316 0.741804,0.0638 1.113,0.0922 0.345298,0.0227 0.688907,0.0607 1.034017,0.0857 0.303237,0.0138 0.606755,0.0255 0.909337,0.0502 0.2898,0.0284 0.580155,0.0296 0.870866,0.0363 0.296822,0.009 0.593265,0.0271 0.890354,0.0263 0.229154,-0.008 0.458742,-0.0119 0.68651,-0.0399 0.222587,-0.0163 0.447036,-0.0139 0.666877,-0.0557 0.200565,-0.0335 0.399592,-0.0667 0.589323,-0.14337 0.237411,-0.0469 0.450074,-0.0483 0.654721,0.014 0.122787,0.0374 0.242933,0.0979 0.363659,0.18512 0.108553,0.0819 0.220132,0.15364 0.294734,0.27384 0.01726,0.0278 0.02968,0.0562 0.04248,0.0844 0.07314,-0.0203 0.152782,-0.0282 0.238669,-7.9e-4 0.01486,-0.0793 0.01578,-0.16059 0.03511,-0.2391 0.107646,-0.43739 0.381541,-0.6005 0.602126,-0.54514 0.127137,0.0319 0.23447,0.13845 0.284147,0.30513 0.06771,-0.16884 0.157521,-0.30042 0.269001,-0.35458 -0.10182,-1.48529 1.415895,-1.62308 1.58137,-0.0848 0.04932,0.45876 0.02392,0.23328 0.07743,0.67608 0.135623,0.71475 0.364553,1.40967 0.458584,2.13324 0.158465,0.83282 0.304538,1.66844 0.440485,2.50513 0.08373,0.64945 0.146605,1.30176 0.24381,1.94958 0.110096,0.70092 0.219876,1.404 0.225027,2.11502 -0.01295,0.84746 -0.03759,1.696 -0.0086,2.54319 0.0689,0.97828 0.146019,1.95755 0.04998,2.9372 -0.168971,1.01202 -0.50438,1.97699 -0.893922,2.92395 -0.290505,0.72161 -0.591031,1.44542 -1.037659,2.08691 -0.536453,0.70802 -1.12039,1.22923 -1.983063,1.5099 -1.038633,0.36456 -2.094006,0.61443 -3.206458,0.56416 -1.076866,0.0601 -2.1533,0.19341 -3.233354,0.16127 -1.166368,-0.0381 -2.334382,-0.0549 -3.50102,-0.076 -1.236859,0.007 -2.468164,0.0698 -3.699535,0.18552 -1.128135,0.0871 -2.251692,0.23698 -3.385406,0.24587 -0.295749,0.006 -0.59163,0.009 -0.8874,0.0147 l 71.311318,25.653812 z m -104.2084,44.40144 c -0.0013,0.002 -0.0027,0.005 -0.0043,0.007 0.002,-9.6e-4 0.004,-0.003 0.006,-0.004 -7.31e-4,-0.001 -4.65e-4,-0.002 -0.0018,-0.003 z m -2.220057,1.66649 c 0.0053,-0.007 -0.01821,0.003 -0.02391,0.01 -0.0074,0.008 -0.01231,0.0189 -0.01965,0.0275 0.01535,-0.0113 0.03155,-0.022 0.04339,-0.037 z m -1.310884,1.70016 c -0.05528,0.0155 -0.110554,0.0307 -0.16584,0.0462 9.62e-4,0.006 0.0019,0.0116 0.0026,0.0174 0.01727,1e-5 0.03455,0.001 0.05179,0.001 -0.0062,0.0149 -0.03129,0.0367 -0.01826,0.045 0.009,0.005 0.06876,-0.0469 0.09912,-0.0779 0.0112,-0.0114 0.02002,-0.0206 0.03055,-0.0318 z m 0.643205,0.6745 c -0.0024,0.002 -0.0062,0.003 -0.0083,0.005 -0.01232,0.0211 -0.02867,0.0404 -0.03689,0.0635 -0.0093,0.0264 0.0348,-0.0373 0.04515,-0.0682 z m -0.370791,0.21925 c -0.0075,0.002 -0.01998,0.007 -0.02796,0.009 0.0098,0.0116 0.01985,0.0231 0.0294,0.0347 0.0052,0.006 0.0094,0.0131 0.0145,0.0195 -0.0061,-0.021 -0.01072,-0.0421 -0.01592,-0.0633 z m 0.473233,1.56266 c -0.0079,0.0183 -0.0058,0.0375 2.9e-5,0.0571 -2.9e-4,-0.0176 0.0022,-0.0622 -2.9e-5,-0.0571 z m -14.789002,-4.92802 c -0.0032,0.019 -0.0065,0.0379 -0.0098,0.0568 0.01473,-0.009 0.03017,-0.0165 0.0464,-0.0239 -0.01226,-0.0109 -0.02432,-0.0221 -0.03662,-0.0329 z m 15.700905,6.47739 c -0.04523,-0.0207 -0.07276,-0.002 -0.0966,0.0245 0.03581,-0.004 0.07043,-0.0102 0.0966,-0.0245 z m 16.941937,11.12415 c -0.002,0.0314 -0.0052,0.0626 -0.0071,0.094 -0.02481,0.41345 -0.03256,0.82773 -0.06101,1.24105 -0.01515,0.44855 -0.02602,0.89759 0.01327,1.34565 0.05011,0.46707 0.119509,0.93176 0.167834,1.39906 0.04698,0.45446 0.109857,0.90829 0.128289,1.36509 0.0079,0.44234 0.0025,0.88399 -0.0241,1.32563 -0.0036,0.43051 0.01562,0.86191 -0.0094,1.29198 -0.01564,0.3192 -0.0068,0.63962 -0.05004,0.9571 -0.05813,0.32616 -0.170504,0.63411 -0.281115,0.94578 -0.02735,0.0816 -0.05343,0.16356 -0.08068,0.24519 0.02432,0.30848 0.05271,0.61683 0.09087,0.92387 0.0044,0.0335 0.0059,0.0671 0.0098,0.10059 0.265682,-0.68878 0.513169,-1.38412 0.625339,-2.11678 0.06479,-0.85919 -0.0053,-1.71592 -0.06597,-2.57277 -0.03428,-0.89259 -0.009,-1.78674 0.0045,-2.6796 -0.01043,-0.61988 -0.109656,-1.23255 -0.205677,-1.84373 -0.100627,-0.66196 -0.163381,-1.32869 -0.249509,-1.99221 -0.0017,-0.01 -0.0036,-0.0199 -0.0053,-0.0299 z m -19.300997,-5.1143 c -0.0073,0.0344 -0.01622,0.0684 -0.0244,0.10255 0.07182,0.0123 0.143048,0.0281 0.214993,0.0395 0.09356,0.0157 0.187139,0.0309 0.280739,0.0462 6.51e-4,-0.005 0.0013,-0.0109 0.0019,-0.0163 -0.157728,-0.0576 -0.315495,-0.11462 -0.473265,-0.17193 z m 16.414561,6.11276 c -6.92e-4,0.001 -6.76e-4,0.001 -0.0015,0.003 -0.0024,0.0147 -0.0099,0.0295 -0.0069,0.0441 0.01092,0.0529 0.0099,-0.0123 0.01772,-0.0419 -0.003,-0.002 -0.0062,-0.003 -0.0092,-0.005 z m 0.03736,0.02 c 0.02392,0.0308 0.0574,0.0718 0.07059,0.0594 -0.01974,-0.0217 -0.04363,-0.0416 -0.07059,-0.0594 z m -27.52032,-8.38533 c -0.0019,-1.3e-4 -0.0039,-2.8e-4 -0.0059,-4.3e-4 0.0018,4e-4 0.0038,8.1e-4 0.0057,9.3e-4 z m -0.0059,-4.3e-4 c -0.02685,-0.004 -0.05364,-0.007 -0.08053,-0.0114 -6.14e-4,0.002 -6.06e-4,0.005 -7.54e-4,0.007 0.0271,0.002 0.05406,0.003 0.08114,0.005 z m 20.366042,7.6209 c -0.01834,-0.003 -0.03516,-0.004 -0.04707,-4.8e-4 0.0085,5.4e-4 0.01707,0.002 0.02561,0.002 0.0058,-1.6e-4 0.01596,-0.001 0.02144,-0.002 z m -10.23578,-3.32187 c -0.0548,-0.01 -0.110228,-0.0127 -0.164981,-0.0226 0.02058,0.0222 0.04278,0.0422 0.06229,0.0657 0.03748,0.0455 0.07276,0.0926 0.108577,0.13942 3.07e-4,-0.061 -0.0024,-0.12177 -0.0059,-0.18255 z m -11.284311,-3.4424 c -0.03932,-0.001 -0.0786,-0.004 -0.117921,-0.005 0.0063,0.002 0.01261,0.004 0.01882,0.007 0.03513,0.0135 0.05691,0.0275 0.08992,0.0406 0.0028,-0.0141 0.0046,-0.0287 0.009,-0.0423 z m 10.02681,3.74081 -1.75e-4,4.9e-4 c 7.34e-4,3.1e-4 0.0013,3.8e-4 0.002,7.2e-4 -6.76e-4,-4.7e-4 -9.81e-4,-0.001 -0.0018,-0.001 z m 0.0018,0.001 c 0.0072,0.006 0.01449,0.0111 0.02159,0.0165 0.123695,0.0902 0.251055,0.17341 0.379939,0.25513 -0.110235,-0.11108 -0.242806,-0.19116 -0.381898,-0.26351 -0.0065,-0.003 -0.01332,-0.005 -0.01962,-0.008 z m -6.851493,-2.1971 c -0.03493,-0.0103 -0.06987,-0.0208 -0.104821,-0.0311 0.0421,0.0297 0.08429,0.0592 0.126745,0.0884 -0.0078,-0.0191 -0.0144,-0.0382 -0.02192,-0.0572 z m 14.672319,5.45036 c -0.06996,0.005 -0.140112,0.009 -0.210006,0.0144 0.0016,0.008 0.0025,0.0155 0.0038,0.0233 0.06879,-0.0124 0.137394,-0.0255 0.206214,-0.0377 z m 10.510506,4.31407 c -0.01588,0.12393 -0.01836,0.24868 -0.0134,0.37414 0.0027,-0.0217 0.008,-0.0431 0.01043,-0.0648 0.01311,-0.1029 0.01057,-0.20613 0.003,-0.30934 z m -29.395386,-9.71631 c 0.0049,0.0113 0.0076,0.0236 0.01421,0.0342 0.0025,0.004 0.01195,0.0146 0.0094,0.0105 -0.0086,-0.014 -0.01552,-0.0299 -0.02364,-0.0447 z m 13.735453,5.07934 c 0.03302,0.29326 0.08249,0.5843 0.136464,0.87446 -0.0036,-0.0234 -0.0059,-0.0471 -0.0096,-0.0704 -0.05381,-0.26488 -0.07203,-0.53898 -0.126895,-0.80411 z m -2.486191,-0.20337 c 0.0095,0.026 0.02417,0.0506 0.05125,0.0705 -0.01583,-0.0239 -0.03404,-0.0471 -0.05125,-0.0705 z m -8.529513,-0.68002 c -0.05027,-0.002 -0.100104,-0.005 -0.150423,-0.006 -0.02665,0.001 -0.05337,0.003 -0.08002,0.004 0.01062,0.0209 0.021,0.0419 0.03014,0.0635 0.0675,-0.0183 0.134462,-0.0383 0.200299,-0.0612 z m 4.751836,2.26276 c -0.01319,0.0109 -0.02707,0.021 -0.04083,0.0314 0.03834,2.3e-4 0.07669,0.001 0.115062,8.1e-4 -0.02496,-0.0101 -0.04912,-0.0226 -0.07424,-0.0322 z m 0.441926,2.62301 c -0.14203,-0.003 -0.291218,-0.0121 -0.441042,-0.0155 -0.0024,0.006 -0.006,0.0162 -0.0086,0.0227 0.149132,0.006 0.298002,0.0177 0.447008,0.0281 0.0012,-0.0129 0.0014,-0.0219 0.0026,-0.0352 z m -0.643943,-0.0134 c -0.01696,10e-4 -0.03325,0.004 -0.0498,0.006 0.0032,3e-5 0.0063,-5.4e-4 0.0095,-4.3e-4 0.0099,2.4e-4 0.0197,0.002 0.02955,0.002 0.0032,-0.003 0.0075,-0.004 0.01077,-0.007 z m -9.411158,-2.9287 c 3.7e-5,0.0481 -0.0045,0.0958 -0.004,0.1439 0.0012,-0.0287 0.0045,-0.0572 0.0053,-0.0858 -6.17e-4,-0.0193 -7.94e-4,-0.0393 -0.0013,-0.0581 z m 31.072218,11.46078 c -0.0035,1.5e-4 -0.0045,-2.2e-4 -0.007,-2.9e-4 -5.15e-4,6.6e-4 -0.0012,9.8e-4 -0.0017,0.002 0.0026,-1.8e-4 0.0053,-3.5e-4 0.0078,-4.6e-4 1.81e-4,-2.2e-4 7.64e-4,-5.7e-4 8.53e-4,-8.2e-4 z m -5.164085,0.30634 c -0.03669,0.002 -0.07345,0.005 -0.110146,0.007 0.03557,0.002 0.07107,0.004 0.106624,0.006 8.74e-4,-0.004 0.0026,-0.009 0.0035,-0.013 z m 1.880187,2.00189 c -0.0018,2.1e-4 -0.0034,1.9e-4 -0.0051,4.1e-4 l 0.0049,9e-5 z m -0.0051,4.1e-4 c -0.17731,-0.0125 -0.354865,-0.0217 -0.532011,-0.0362 -0.807645,-0.0591 -1.617003,-0.094 -2.422954,-0.17733 -0.689955,-0.0757 -1.38143,-0.1573 -2.076333,-0.14806 -0.432953,0.006 -0.865175,0.0308 -1.297815,0.0459 -0.164378,0.2069 -0.466365,0.27885 -0.722603,0.3126 -0.08413,0.003 -0.168405,0.0122 -0.252561,0.009 -0.262282,-0.01 -0.504124,-0.0949 -0.723474,-0.22517 -0.432737,0.0393 -0.865204,0.0819 -1.299035,0.10798 -0.438136,0.007 -0.876283,-0.007 -1.314457,-0.0138 -0.05415,0.0894 -0.125184,0.19939 -0.191837,0.2211 -0.158284,0.0515 -0.336591,0.11108 -0.495843,0.0613 -0.158947,-0.0498 -0.231589,-0.16989 -0.274378,-0.30327 -0.444332,-0.0281 -0.888394,-0.0626 -1.3336,-0.0712 -0.484802,-0.0141 -0.9702,-0.0147 -1.454993,-0.0326 -0.402123,-0.005 -0.80337,-0.0244 -1.205341,-0.0349 -0.448029,-0.0103 -0.895502,-0.025 -1.34354,-0.006 -0.35295,0.0161 -0.705808,0.0269 -1.058625,0.0436 -0.341279,0.0194 -0.683311,0.0159 -1.025165,0.0129 l 1.893239,0.68107 c 0.243037,-0.005 0.486216,-0.0124 0.728086,-0.0178 1.481393,0.0218 2.962157,-0.006 4.442944,-0.0349 1.102947,-0.0106 2.195721,-0.15632 3.293293,-0.24172 1.269402,-0.11869 2.539283,-0.18333 3.814382,-0.19026 1.18674,0.0207 2.374129,0.0397 3.560639,0.0782 0.431192,0.0105 0.861423,-0.0134 1.29181,-0.0398 z m -6.592801,-2.17698 c -0.09155,-0.0131 -0.183446,-0.0247 -0.275191,-0.0123 -0.0215,0.0132 -0.04004,0.0296 -0.0578,0.0467 0.111062,-0.0112 0.22199,-0.0222 0.332995,-0.0343 z m -9.498301,-3.37684 c -0.01385,0.0115 -0.02741,0.0234 -0.04106,0.0351 0.03742,0.0132 0.07469,0.0268 0.112172,0.0398 -0.02786,-0.0242 -0.05135,-0.0492 -0.07111,-0.0749 z m 0.403759,0.17431 c -0.0303,-0.004 -0.06091,-0.008 -0.0911,-0.0141 0.01713,0.006 0.03411,0.0121 0.05131,0.0179 0.01216,0.004 0.02467,0.008 0.03705,0.0117 6.59e-4,-0.005 0.002,-0.0103 0.0027,-0.0155 z m -11.382913,-2.95853 c 0.0072,0.0401 0.01585,0.0976 0.02148,0.12948 0.08966,0.45498 0.193453,0.90697 0.301702,1.35782 -0.0061,-0.11656 -0.01369,-0.23309 -0.0314,-0.34857 -0.07227,-0.35758 -0.180799,-0.70633 -0.271117,-1.05945 -0.0073,-0.0263 -0.01347,-0.0529 -0.02067,-0.0793 z m 17.725326,6.42251 c -0.0151,0.0904 -0.0297,0.18109 -0.03822,0.27252 -0.0063,0.0644 -0.01573,0.12824 -0.02339,0.19231 0.009,0.003 0.01764,0.006 0.0266,0.0101 0.04712,0.0164 0.09526,0.0297 0.142454,0.0458 -0.05651,-0.16792 -0.08638,-0.34319 -0.107456,-0.5207 z m -15.640111,-5.10477 -1.77e-4,5e-4 c -0.0035,-0.002 -0.0065,-0.002 -0.0084,0.002 -8.19e-4,0.002 0.02211,0.0283 0.03156,0.041 l 1.74e-4,-5e-4 c 0.0028,-0.0125 -0.0123,-0.0376 -0.02318,-0.0429 z m 13.31735,5.9424 c -0.01825,-1.6e-4 -0.03649,-10e-4 -0.05472,-0.002 -0.0016,0.005 -0.0033,0.01 -0.0047,0.0148 0.01976,9.8e-4 0.03953,0.002 0.05927,0.003 9e-5,-0.005 -9.4e-5,-0.0106 1.61e-4,-0.0159 z m -9.653327,-2.94123 c -0.107407,-0.0182 -0.214617,-0.0366 -0.321739,-0.056 -0.06015,-0.006 -0.120161,-0.0123 -0.180267,-0.0182 0.162852,0.0352 0.325528,0.0709 0.488293,0.10656 0.0043,-0.0115 0.0091,-0.0217 0.01376,-0.0323 z m -4.021942,0.51265 c 0.0541,0.0558 0.105067,0.11471 0.159795,0.16991 -0.04002,-0.0682 -0.09702,-0.12171 -0.159795,-0.16991 z m 4.130704,2.36124 c -0.274315,-0.12347 -0.61574,-0.15893 -0.876292,-0.25107 -0.189663,-0.0486 -0.379598,-0.0972 -0.569593,-0.14513 l 1.738391,0.62537 c -0.01509,-0.0239 -0.03342,-0.045 -0.04617,-0.0709 -0.07113,-0.066 -0.154903,-0.1171 -0.246333,-0.15826 z" />
    </clipPath>
  </defs>
  <g
     inkscape:label="Layer 1"
     inkscape:groupmode="layer"
     id="layer1"
     transform="translate(4.4098169,-60.38447)">
    <g
       id="g159"
       transform="rotate(-170.44673,40.521394,78.501799)">
      <g
         id="g250">
        <rect
           style="fill:none;stroke:#000000;stroke-width:18.0493;stroke-linecap:round;stroke-linejoin:round;stroke-dasharray:none"
           id="rect1-6"
           width="73.262169"
           height="72.213387"
           x="-25.242313"
           y="-11.154829"
           transform="matrix(-0.84024192,0.54221169,-0.44029959,-0.89785092,0,0)" />
        <rect
           style="fill:none;stroke:#000000;stroke-width:18.7109;stroke-linecap:round;stroke-linejoin:round;stroke-dasharray:none"
           id="rect1-6-2"
           width="81.313805"
           height="69.920319"
           x="-41.659462"
           y="-196.81274"
           transform="matrix(-0.75704175,0.48852228,-0.45473945,-0.92729643,-114.17226,-111.29957)"
           clip-path="url(#clipPath249)" />
        <path
           style="fill:none;stroke:#000000;stroke-width:11;stroke-linecap:round;stroke-linejoin:round;stroke-dasharray:none"
           d="M -102.62491,47.723662 C -111.45054,-9.5652496 -71.588211,-55.48784 -71.588211,-55.48784 v 0"
           id="path156" />
        <path
           style="fill:none;stroke:#000000;stroke-width:11;stroke-linecap:round;stroke-linejoin:round;stroke-dasharray:none"
           d="m -72.051124,-55.668847 c -28.439076,8.096883 -28.439076,8.096883 -28.439076,8.096883"
           id="path157" />
        <path
           style="fill:none;stroke:#000000;stroke-width:10.5747;stroke-linecap:round;stroke-linejoin:round;stroke-dasharray:none"
           d="M 42.8126,-25.771774 C 51.41655,31.553854 11.25793,76.515464 11.25793,76.515464 v 0"
           id="path156-4" />
        <path
           style="fill:none;stroke:#000000;stroke-width:11;stroke-linecap:round;stroke-linejoin:round;stroke-dasharray:none"
           d="m 10.85284,78.776424 c 29.45877,-2.31604 29.45877,-2.31604 29.45877,-2.31604"
           id="path157-6" />
      </g>
    </g>
  </g>
</svg>
