<?xml version="1.0" encoding="UTF-8" standalone="no"?>
<!-- Created with Inkscape (http://www.inkscape.org/) -->

<svg
   width="197.40651mm"
   height="190.89357mm"
   viewBox="0 0 197.40651 190.89357"
   version="1.1"
   id="svg1"
   inkscape:version="1.3.2 (091e20e, 2023-11-25, custom)"
   sodipodi:docname="money.svg"
   xml:space="preserve"
   xmlns:inkscape="http://www.inkscape.org/namespaces/inkscape"
   xmlns:sodipodi="http://sodipodi.sourceforge.net/DTD/sodipodi-0.dtd"
   xmlns="http://www.w3.org/2000/svg"
   xmlns:svg="http://www.w3.org/2000/svg"><sodipodi:namedview
     id="namedview1"
     pagecolor="#505050"
     bordercolor="#ffffff"
     borderopacity="1"
     inkscape:showpageshadow="0"
     inkscape:pageopacity="0"
     inkscape:pagecheckerboard="1"
     inkscape:deskcolor="#505050"
     inkscape:document-units="mm"
     inkscape:zoom="0.69219276"
     inkscape:cx="443.51807"
     inkscape:cy="389.34241"
     inkscape:window-width="1920"
     inkscape:window-height="991"
     inkscape:window-x="-9"
     inkscape:window-y="-9"
     inkscape:window-maximized="1"
     inkscape:current-layer="layer1" /><defs
     id="defs1">
	
</defs><g
     inkscape:label="Layer 1"
     inkscape:groupmode="layer"
     id="layer1"
     transform="translate(-6.3921439,-45.534141)"><g
       id="g13"><path
         style="fill:#000000;stroke:#000000;stroke-width:11.2579;stroke-linecap:round;stroke-linejoin:round"
         d="M 108.41525,53.017042 C 12.021094,150.76937 12.021094,150.76937 12.021094,150.76937"
         id="path4" /><path
         style="fill:#000000;stroke:#000000;stroke-width:10.8057;stroke-linecap:round;stroke-linejoin:round"
         d="M 197.67739,151.24824 C 110.71783,50.936991 110.71783,50.936991 110.71783,50.936991"
         id="path4-5" /><path
         style="fill:#000000;stroke:#000000;stroke-width:11;stroke-linecap:round;stroke-linejoin:round"
         d="m 12.43713,150.65744 29.814672,0.76448"
         id="path5" /><path
         style="fill:#000000;stroke:#000000;stroke-width:11;stroke-linecap:round;stroke-linejoin:round"
         d="m 168.48381,151.81459 29.81484,0.76448"
         id="path5-2" /><path
         style="fill:#000000;stroke:#000000;stroke-width:11;stroke-linecap:round;stroke-linejoin:round"
         d="m 42.398731,152.03947 -1.14672,77.97683"
         id="path6" /><path
         style="fill:#000000;stroke:#000000;stroke-width:11;stroke-linecap:round;stroke-linejoin:round"
         d="m 168.63072,152.61234 -1.14673,77.97683"
         id="path6-0" /><path
         style="fill:#000000;stroke:#000000;stroke-width:11;stroke-linecap:round;stroke-linejoin:round"
         d="M 41.487323,230.92771 H 167.62632"
         id="path7" /><g
         id="g12"
         transform="matrix(1,0,0,0.95920583,-1.7344273,2.9250144)"><g
           style="fill:#000000"
           id="g10"
           transform="matrix(0.86316845,0,0,0.87177362,56.374731,95.575747)"><g
             id="SVGRepo_bgCarrier"
             stroke-width="0" /><g
             id="SVGRepo_tracerCarrier"
             stroke-linecap="round"
             stroke-linejoin="round" /><g
             id="SVGRepo_iconCarrier"><path
               d="M 94.9,71.35 C 86.82,63.72 73.08,57.36 63.99,53.15 62.45,52.44 61.06,51.8 59.88,51.23 c -3.43,-1.65 -8.12,-6.22 -6.1,-11.47 1.36,-3.55 4.81,-5.34 10.27,-5.34 1.75,0 3.67,0.2 5.72,0.58 7.12,1.33 12.52,3.99 15.58,5.5 0.38,0.19 0.82,0.21 1.22,0.07 0.39,-0.15 0.72,-0.45 0.89,-0.84 l 7.01,-15.81 c 0.31,-0.69 0.07,-1.51 -0.57,-1.93 -4.94,-3.28 -17.27,-8.15 -30.97,-8.15 -1.98,0 -3.95,0.1 -5.87,0.3 -10.92,1.12 -21.86,4.03 -27.92,17.64 -3.78,8.47 -3.77,18.01 0.01,24.89 4.04,7.51 10.66,10.87 19.04,15.11 l 1.08,0.55 c 6.05,3.02 13.3,6.38 18.07,8.59 7.05,3.4 9.66,9.44 8.04,13.08 -2.61,5.87 -8.38,7.16 -18.36,4.33 -8.81,-2.39 -16.94,-9.14 -19.21,-11.15 -0.34,-0.3 -0.79,-0.44 -1.25,-0.38 -0.45,0.06 -0.85,0.32 -1.1,0.69 L 24.6,104.14 c -0.41,0.63 -0.32,1.46 0.22,1.98 5.63,5.43 10.22,8.59 18.17,12.5 5.35,2.63 13.18,4.21 20.95,4.21 8.12,0 27.95,-1.88 36.65,-19.26 5.55,-11.12 3.48,-22.84 -5.69,-32.22 z"
               fill="#00080a"
               id="path1" /></g></g><path
           style="fill:#000000;stroke:#000000;stroke-width:15.1017;stroke-linecap:round;stroke-linejoin:round"
           d="M 108.419,109.43241 108.19019,96.557447"
           id="path10" /><path
           style="fill:#000000;stroke:#000000;stroke-width:15.1018;stroke-linecap:round;stroke-linejoin:round;stroke-dasharray:none"
           d="m 113.89584,212.635 -0.22882,-12.87496"
           id="path10-7" /></g></g></g></svg>
